# xmcd CD database file
#
# Track frame offsets:
#	150
#	19621
#	37395
#	57729
#	73883
#	93118
#	113805
#	132226
#	149113
#	167229
#	187476
#	201945
#	217011
#	232657
#	252271
#	269911
#	283937
#	298851
#	315330
#	334687
#
# Disc length: 4686 seconds
#
# Revision: 1
# Processed by: cddbd v1.5PL3 Copyright (c) Steve Scherf et al.
# Submitted via: CDex 1.50beta10
#
DISCID=55124c14
DTITLE=Zeze di Camargo and Luciano - As 20 Mais
DYEAR=2000
DGENRE=Country
TTITLE0=Menina veneno
TTITLE1=Voce vai viver
TTITLE2=Deve ser amor
TTITLE3=Salva meu coracao
TTITLE4=Faz mais uma vez comigo
TTITLE5=Preciso de um tempo
TTITLE6=Vem ficar comigo
TTITLE7=A ferro e fogo
TTITLE8=Pao de mel
TTITLE9=Tanto pra dizer adeus
TTITLE10=Nao da pra esperar
TTITLE11=Como um anjo
TTITLE12=Liberdade Liberdade
TTITLE13=O Amor deixou agente
TTITLE14=O que e que eu faco
TTITLE15=Doce paixao
TTITLE16=Eu nasci pra amar voce
TTITLE17=Ainda sou o mesmo homem
TTITLE18=Foi a primeira vez
TTITLE19=mexe que e bom
EXTD=Fernandinhoo Borges YEAR: 2000
EXTT0=
EXTT1=
EXTT2=
EXTT3=
EXTT4=
EXTT5=
EXTT6=
EXTT7=
EXTT8=
EXTT9=
EXTT10=
EXTT11=
EXTT12=
EXTT13=
EXTT14=
EXTT15=
EXTT16=
EXTT17=
EXTT18=
EXTT19=
PLAYORDER=
